<?xml version="1.0" encoding="UTF-8" standalone="no"?>
<svg
   xmlns:dc="http://purl.org/dc/elements/1.1/"
   xmlns:cc="http://creativecommons.org/ns#"
   xmlns:rdf="http://www.w3.org/1999/02/22-rdf-syntax-ns#"
   xmlns:svg="http://www.w3.org/2000/svg"
   xmlns="http://www.w3.org/2000/svg"
   xmlns:sodipodi="http://sodipodi.sourceforge.net/DTD/sodipodi-0.dtd"
   xmlns:inkscape="http://www.inkscape.org/namespaces/inkscape"
   width="32"
   height="47"
   viewBox="0 0 8.4666704 12.435418"
   version="1.1"
   id="svg2373"
   inkscape:version="0.92.3 (2405546, 2018-03-11)"
   sodipodi:docname="ExpensesManager_logo_v1_1.svg"
   inkscape:export-filename="C:\Users\Dimple\Documents\ExpensesManager_08_October_2018_12-05-am\SVGs\ExpensesManager_logo_v1_24.png"
   inkscape:export-xdpi="96"
   inkscape:export-ydpi="96">
  <defs
     id="defs2367" />
  <sodipodi:namedview
     id="base"
     pagecolor="#ffffff"
     bordercolor="#666666"
     borderopacity="1.0"
     inkscape:pageopacity="0.0"
     inkscape:pageshadow="2"
     inkscape:zoom="3.959798"
     inkscape:cx="62.264066"
     inkscape:cy="15.383336"
     inkscape:document-units="mm"
     inkscape:current-layer="layer2"
     showgrid="false"
     showguides="false"
     inkscape:window-width="1366"
     inkscape:window-height="705"
     inkscape:window-x="-8"
     inkscape:window-y="-8"
     inkscape:window-maximized="1"
     units="px" />
  <metadata
     id="metadata2370">
    <rdf:RDF>
      <cc:Work
         rdf:about="">
        <dc:format>image/svg+xml</dc:format>
        <dc:type
           rdf:resource="http://purl.org/dc/dcmitype/StillImage" />
        <dc:title></dc:title>
      </cc:Work>
    </rdf:RDF>
  </metadata>
  <g
     inkscape:label="Layer 1"
     inkscape:groupmode="layer"
     id="layer1"
     style="display:inline"
     transform="translate(0,-284.56455)">
    <path
       sodipodi:nodetypes="ccccccc"
       inkscape:connector-curvature="0"
       id="path2938"
       d="m 0.03423672,284.82792 7.62439988,-0.0118 c 0.3506959,-0.0211 0.5970289,0.18435 0.6575929,0.62108 l 0.02497,10.82165 c -0.01243,0.42184 -0.309134,0.61563 -0.8064266,0.63091 l -7.50053688,0.003 z"
       style="fill:#2900c8;fill-opacity:1;stroke:#0052c8;stroke-width:0.07178922;stroke-linecap:butt;stroke-linejoin:miter;stroke-miterlimit:4;stroke-dasharray:none;stroke-opacity:1" />
  </g>
  <g
     inkscape:groupmode="layer"
     id="layer2"
     inkscape:label="Book"
     style="display:inline"
     transform="translate(0,-284.56455)">
    <path
       style="fill:#fffffe;fill-opacity:1;stroke:#2900c8;stroke-width:0.07177395;stroke-linecap:butt;stroke-linejoin:miter;stroke-miterlimit:4;stroke-dasharray:none;stroke-opacity:1"
       d="m 0.03423672,284.82792 7.62440098,-0.0118 c 0.350696,-0.0209 0.597029,0.18434 0.657595,0.62107 l 0.02497,10.82165 c -0.01243,0.42185 -0.309136,0.61562 -0.806428,0.63091 l -7.50053868,0.003 z"
       id="path2936"
       inkscape:connector-curvature="0"
       sodipodi:nodetypes="ccccccc" />
  </g>
  <g
     inkscape:groupmode="layer"
     id="layer3"
     inkscape:label="Rupee"
     style="display:inline"
     transform="translate(0,-284.56455)">
    <path
       id="path9493-1-6"
       d="M 7.416794,292.01377 H 6.7317741 c -0.030677,-0.11433 -0.078947,-0.22221 -0.1431423,-0.32038 H 7.416794 c 0.1668604,0 0.3021245,-0.1255 0.3021245,-0.28032 0,-0.15482 -0.1352641,-0.28033 -0.3021245,-0.28033 H 4.093416 c -0.1668607,0 -0.3021253,0.12551 -0.3021253,0.28033 0,0.15482 0.1352646,0.28032 0.3021253,0.28032 h 1.4242993 c 0.2479119,0 0.463611,0.13001 0.5723371,0.32038 H 4.093416 c -0.1668607,0 -0.3021253,0.1255 -0.3021253,0.28032 0,0.15482 0.1352646,0.28033 0.3021253,0.28033 h 1.9966364 c -0.1087422,0.19034 -0.3244252,0.32038 -0.5723371,0.32038 H 4.093416 c -0.1221956,0 -0.2323567,0.0683 -0.2791419,0.17302 -0.046752,0.10477 -0.020914,0.22534 0.065496,0.30552 l 2.3738379,2.20257 c 0.05902,0.0548 0.1362999,0.082 0.2136465,0.082 0.077313,0 0.1546259,-0.0274 0.2136454,-0.082 0.1180061,-0.10954 0.1180061,-0.28698 0,-0.39646 l -1.8580667,-1.72402 h 0.6948821 c 0.5860072,0 1.0790452,-0.37567 1.2145768,-0.88103 H 7.416794 c 0.1668605,0 0.3021246,-0.1255 0.3021246,-0.28033 0,-0.1548 -0.1352641,-0.2803 -0.3021246,-0.2803 z"
       style="fill:#00009a;fill-opacity:1;stroke:#2900c8;stroke-width:0.06701007;stroke-miterlimit:4;stroke-dasharray:none;stroke-opacity:1"
       inkscape:connector-curvature="0" />
  </g>
  <g
     inkscape:groupmode="layer"
     id="layer4"
     inkscape:label="Spirals"
     transform="translate(0,-284.56455)">
    <rect
       style="opacity:1;fill:#000095;fill-opacity:1;stroke:#2900c8;stroke-width:0.02187918;stroke-linejoin:round;stroke-miterlimit:4;stroke-dasharray:none;stroke-opacity:1"
       id="rect1173"
       width="1.4019114"
       height="0.43736231"
       x="-0.48934397"
       y="285.36218"
       rx="0.30096328"
       ry="9.9452486" />
    <rect
       ry="9.9452486"
       rx="0.30096328"
       y="286.64551"
       x="-0.48934397"
       height="0.43736231"
       width="1.4019114"
       id="rect3154"
       style="opacity:1;fill:#000095;fill-opacity:1;stroke:#2900c8;stroke-width:0.02187918;stroke-linejoin:round;stroke-miterlimit:4;stroke-dasharray:none;stroke-opacity:1" />
    <rect
       style="opacity:1;fill:#000095;fill-opacity:1;stroke:#2900c8;stroke-width:0.02187918;stroke-linejoin:round;stroke-miterlimit:4;stroke-dasharray:none;stroke-opacity:1"
       id="rect3168"
       width="1.4019114"
       height="0.43736231"
       x="-0.48934397"
       y="287.92883"
       rx="0.30096328"
       ry="9.9452486" />
    <rect
       ry="9.9452486"
       rx="0.30096328"
       y="289.21216"
       x="-0.48934397"
       height="0.43736231"
       width="1.4019114"
       id="rect3170"
       style="opacity:1;fill:#000095;fill-opacity:1;stroke:#2900c8;stroke-width:0.02187918;stroke-linejoin:round;stroke-miterlimit:4;stroke-dasharray:none;stroke-opacity:1" />
    <rect
       style="opacity:1;fill:#000095;fill-opacity:1;stroke:#2900c8;stroke-width:0.02187918;stroke-linejoin:round;stroke-miterlimit:4;stroke-dasharray:none;stroke-opacity:1"
       id="rect3172"
       width="1.4019114"
       height="0.43736231"
       x="-0.48934397"
       y="290.49548"
       rx="0.30096328"
       ry="9.9452486" />
    <rect
       ry="9.9452486"
       rx="0.30096328"
       y="291.77881"
       x="-0.48934397"
       height="0.43736231"
       width="1.4019114"
       id="rect3174"
       style="opacity:1;fill:#000095;fill-opacity:1;stroke:#2900c8;stroke-width:0.02187918;stroke-linejoin:round;stroke-miterlimit:4;stroke-dasharray:none;stroke-opacity:1" />
    <rect
       style="opacity:1;fill:#000095;fill-opacity:1;stroke:#2900c8;stroke-width:0.02187918;stroke-linejoin:round;stroke-miterlimit:4;stroke-dasharray:none;stroke-opacity:1"
       id="rect3176"
       width="1.4019114"
       height="0.43736231"
       x="-0.48934397"
       y="293.06213"
       rx="0.30096328"
       ry="9.9452486" />
    <rect
       ry="9.9452486"
       rx="0.30096328"
       y="294.34546"
       x="-0.48934397"
       height="0.43736231"
       width="1.4019114"
       id="rect3178"
       style="opacity:1;fill:#000095;fill-opacity:1;stroke:#2900c8;stroke-width:0.02187918;stroke-linejoin:round;stroke-miterlimit:4;stroke-dasharray:none;stroke-opacity:1" />
    <rect
       style="opacity:1;fill:#000095;fill-opacity:1;stroke:#2900c8;stroke-width:0.02187918;stroke-linejoin:round;stroke-miterlimit:4;stroke-dasharray:none;stroke-opacity:1"
       id="rect3180"
       width="1.4019114"
       height="0.43736231"
       x="-0.48934397"
       y="295.62881"
       rx="0.30096328"
       ry="9.9452486" />
  </g>
</svg>
