<?xml version="1.0" encoding="UTF-8" standalone="no"?>
<svg
   xmlns:dc="http://purl.org/dc/elements/1.1/"
   xmlns:cc="http://creativecommons.org/ns#"
   xmlns:rdf="http://www.w3.org/1999/02/22-rdf-syntax-ns#"
   xmlns:svg="http://www.w3.org/2000/svg"
   xmlns="http://www.w3.org/2000/svg"
   xmlns:sodipodi="http://sodipodi.sourceforge.net/DTD/sodipodi-0.dtd"
   xmlns:inkscape="http://www.inkscape.org/namespaces/inkscape"
   width="38"
   height="29"
   viewBox="0 0 10.054167 7.6729173"
   version="1.1"
   id="svg2373"
   inkscape:version="0.92.3 (2405546, 2018-03-11)"
   sodipodi:docname="ExpensesManager_logo_v1_2_inkspace.svg"
   inkscape:export-filename="C:\Users\Dimple\Documents\ExpensesManager_08_October_2018_12-05-am\SVGs\ExpensesManager_logo_v1_24.png"
   inkscape:export-xdpi="96"
   inkscape:export-ydpi="96">
  <defs
     id="defs2367" />
  <sodipodi:namedview
     id="base"
     pagecolor="#ffffff"
     bordercolor="#666666"
     borderopacity="1.0"
     inkscape:pageopacity="0.0"
     inkscape:pageshadow="2"
     inkscape:zoom="7.9195959"
     inkscape:cx="24.926086"
     inkscape:cy="-0.24810464"
     inkscape:document-units="mm"
     inkscape:current-layer="layer3"
     showgrid="false"
     showguides="true"
     inkscape:window-width="1366"
     inkscape:window-height="705"
     inkscape:window-x="-8"
     inkscape:window-y="-8"
     inkscape:window-maximized="1"
     units="px"
     showborder="true">
    <inkscape:grid
       type="xygrid"
       id="grid829" />
  </sodipodi:namedview>
  <metadata
     id="metadata2370">
    <rdf:RDF>
      <cc:Work
         rdf:about="">
        <dc:format>image/svg+xml</dc:format>
        <dc:type
           rdf:resource="http://purl.org/dc/dcmitype/StillImage" />
        <dc:title></dc:title>
      </cc:Work>
    </rdf:RDF>
  </metadata>
  <g
     inkscape:label="Layer 1"
     inkscape:groupmode="layer"
     id="layer1"
     style="display:inline"
     transform="translate(0,-289.32702)">
    <path
       sodipodi:nodetypes="ccccccc"
       inkscape:connector-curvature="0"
       id="path2938"
       d="m 9.8045639,289.70561 0.020233,6.33273 c 0.017397,0.29128 -0.1472776,0.49613 -0.4981245,0.54702 l -8.69557863,0.0354 c -0.33898923,-0.01 -0.49511611,-0.25598 -0.50809689,-0.669 l -0.0133748,-6.2299 z"
       style="fill:#2900c8;fill-opacity:1;stroke:#0052c8;stroke-width:0.05864855;stroke-linecap:butt;stroke-linejoin:miter;stroke-miterlimit:4;stroke-dasharray:none;stroke-opacity:1" />
  </g>
  <g
     inkscape:groupmode="layer"
     id="layer2"
     inkscape:label="Book"
     style="display:inline"
     transform="translate(0,-289.32702)">
    <path
       style="fill:#fffffe;fill-opacity:1;stroke:#2900c8;stroke-width:0.05863607;stroke-linecap:butt;stroke-linejoin:miter;stroke-miterlimit:4;stroke-dasharray:none;stroke-opacity:1"
       d="m 9.9719131,289.91294 0.020234,6.33276 c 0.017393,0.29125 -0.1472781,0.49614 -0.4981258,0.54703 l -8.69557602,0.0354 c -0.33898654,-0.01 -0.49511303,-0.25593 -0.50809424,-0.66896 l -0.0133746,-6.22988 z"
       id="path2936"
       inkscape:connector-curvature="0"
       sodipodi:nodetypes="ccccccc" />
    <rect
       style="opacity:0.98000004;fill:#37abc8;fill-opacity:1;stroke:none;stroke-width:0.13229166;stroke-linejoin:round;stroke-miterlimit:4;stroke-dasharray:none;stroke-opacity:1"
       id="rect4534"
       width="0.91829103"
       height="3.9192977"
       x="3.1585004"
       y="291.77557"
       rx="0"
       ry="0"
       transform="rotate(0.27502743)" />
    <rect
       ry="0"
       rx="0"
       y="292.97827"
       x="4.2168341"
       height="2.7165849"
       width="0.91829103"
       id="rect4545"
       style="opacity:0.98000004;fill:#217867;fill-opacity:1;stroke:none;stroke-width:0.11013871;stroke-linejoin:round;stroke-miterlimit:4;stroke-dasharray:none;stroke-opacity:1"
       transform="rotate(0.27502743)" />
    <rect
       style="opacity:0.98000004;fill:#4d4455;fill-opacity:1;stroke:none;stroke-width:0.12110585;stroke-linejoin:round;stroke-miterlimit:4;stroke-dasharray:none;stroke-opacity:1"
       id="rect4547"
       width="0.91829103"
       height="3.2845328"
       x="5.275167"
       y="292.41031"
       rx="0"
       ry="0"
       transform="rotate(0.27502743)" />
  </g>
  <g
     inkscape:groupmode="layer"
     id="layer3"
     inkscape:label="Rupee"
     style="display:inline"
     transform="translate(0,-289.32702)">
    <path
       id="path9493-1-6"
       d="m 7.7875686,293.76818 -0.3621957,-0.007 c -0.014908,-0.0609 -0.039344,-0.11869 -0.071966,-0.1713 l 0.4379145,0.0101 c 0.087746,8.8e-4 0.1608214,-0.0654 0.1630224,-0.14527 0.0013,-0.0821 -0.068175,-0.15016 -0.1565327,-0.15183 l -1.7572762,-0.0353 c -0.087746,-8.8e-4 -0.1608154,0.0655 -0.1630111,0.14525 -0.00131,0.082 0.068173,0.1502 0.156533,0.15182 l 0.7531544,0.0154 c 0.1310144,0.004 0.2436504,0.0741 0.2989699,0.17593 l -1.0557996,-0.0214 c -0.087746,-8.8e-4 -0.1608152,0.0655 -0.163012,0.14527 -0.00131,0.0821 0.068172,0.15017 0.1565422,0.15183 l 1.0557896,0.0214 c -0.059607,0.0999 -0.1752836,0.16617 -0.306289,0.16387 l -0.7531095,-0.0148 c -0.064987,-0.004 -0.123441,0.035 -0.1495686,0.0887 -0.025872,0.0552 -0.013915,0.11934 0.031099,0.16264 l 1.2299232,1.19318 c 0.030661,0.0286 0.071223,0.0449 0.1121451,0.0457 0.041319,0.002 0.08205,-0.013 0.1136098,-0.0434 0.063308,-0.0591 0.065808,-0.15076 0.00446,-0.21022 l -0.9627095,-0.93403 0.3674429,0.007 c 0.3098537,0.006 0.5748243,-0.18795 0.6523136,-0.45435 l 0.3619489,0.007 c 0.087746,8.7e-4 0.1608254,-0.0655 0.1629705,-0.14525 0.00131,-0.082 -0.068173,-0.15018 -0.1565336,-0.15181 z"
       style="fill:#00009a;fill-opacity:1;stroke:#2900c8;stroke-width:0.03549065;stroke-miterlimit:4;stroke-dasharray:none;stroke-opacity:1"
       inkscape:connector-curvature="0" />
  </g>
  <g
     inkscape:groupmode="layer"
     id="layer4"
     inkscape:label="Spirals"
     transform="translate(0,-289.32702)">
    <rect
       style="opacity:1;fill:#000095;fill-opacity:1;stroke:#2900c8;stroke-width:0.01787429;stroke-linejoin:round;stroke-miterlimit:4;stroke-dasharray:none;stroke-opacity:1"
       id="rect1173"
       width="1.1703738"
       height="0.32782507"
       x="289.39285"
       y="-8.8599806"
       rx="0.25145605"
       ry="0.12849143"
       transform="matrix(0.00169707,0.99999856,-0.99999862,0.00165966,0,0)" />
    <rect
       transform="matrix(0.00169707,0.99999856,-0.99999862,0.00165966,0,0)"
       ry="0.12849143"
       rx="0.25145605"
       y="-7.8016486"
       x="289.39108"
       height="0.32782507"
       width="1.1703738"
       id="rect4549"
       style="opacity:1;fill:#000095;fill-opacity:1;stroke:#2900c8;stroke-width:0.01787429;stroke-linejoin:round;stroke-miterlimit:4;stroke-dasharray:none;stroke-opacity:1" />
    <rect
       transform="matrix(0.00169707,0.99999856,-0.99999862,0.00165966,0,0)"
       ry="0.12849143"
       rx="0.25145605"
       y="-6.7433171"
       x="289.38931"
       height="0.32782507"
       width="1.1703738"
       id="rect4551"
       style="opacity:1;fill:#000095;fill-opacity:1;stroke:#2900c8;stroke-width:0.01787429;stroke-linejoin:round;stroke-miterlimit:4;stroke-dasharray:none;stroke-opacity:1" />
    <rect
       style="opacity:1;fill:#000095;fill-opacity:1;stroke:#2900c8;stroke-width:0.01787429;stroke-linejoin:round;stroke-miterlimit:4;stroke-dasharray:none;stroke-opacity:1"
       id="rect4553"
       width="1.1703738"
       height="0.32782507"
       x="289.38754"
       y="-5.6849856"
       rx="0.25145605"
       ry="0.12849143"
       transform="matrix(0.00169707,0.99999856,-0.99999862,0.00165966,0,0)" />
    <rect
       transform="matrix(0.00169707,0.99999856,-0.99999862,0.00165966,0,0)"
       ry="0.12849143"
       rx="0.25145605"
       y="-4.6266541"
       x="289.38577"
       height="0.32782507"
       width="1.1703738"
       id="rect4555"
       style="opacity:1;fill:#000095;fill-opacity:1;stroke:#2900c8;stroke-width:0.01787429;stroke-linejoin:round;stroke-miterlimit:4;stroke-dasharray:none;stroke-opacity:1" />
    <rect
       style="opacity:1;fill:#000095;fill-opacity:1;stroke:#2900c8;stroke-width:0.01787429;stroke-linejoin:round;stroke-miterlimit:4;stroke-dasharray:none;stroke-opacity:1"
       id="rect4557"
       width="1.1703738"
       height="0.32782507"
       x="289.384"
       y="-3.5683224"
       rx="0.25145605"
       ry="0.12849143"
       transform="matrix(0.00169707,0.99999856,-0.99999862,0.00165966,0,0)" />
    <rect
       transform="matrix(0.00169707,0.99999856,-0.99999862,0.00165966,0,0)"
       ry="0.12849143"
       rx="0.25145605"
       y="-2.5099905"
       x="289.38223"
       height="0.32782507"
       width="1.1703738"
       id="rect4559"
       style="opacity:1;fill:#000095;fill-opacity:1;stroke:#2900c8;stroke-width:0.01787429;stroke-linejoin:round;stroke-miterlimit:4;stroke-dasharray:none;stroke-opacity:1" />
    <rect
       style="opacity:1;fill:#000095;fill-opacity:1;stroke:#2900c8;stroke-width:0.01787429;stroke-linejoin:round;stroke-miterlimit:4;stroke-dasharray:none;stroke-opacity:1"
       id="rect4561"
       width="1.1703738"
       height="0.32782507"
       x="289.38046"
       y="-1.4516587"
       rx="0.25145605"
       ry="0.12849143"
       transform="matrix(0.00169707,0.99999856,-0.99999862,0.00165966,0,0)" />
    <rect
       transform="matrix(0.00169707,0.99999856,-0.99999862,0.00165966,0,0)"
       ry="0.12849143"
       rx="0.25145605"
       y="-0.39332691"
       x="289.37869"
       height="0.32782507"
       width="1.1703738"
       id="rect4563"
       style="opacity:1;fill:#000095;fill-opacity:1;stroke:#2900c8;stroke-width:0.01787429;stroke-linejoin:round;stroke-miterlimit:4;stroke-dasharray:none;stroke-opacity:1" />
  </g>
</svg>
