<?xml version="1.0" encoding="UTF-8" standalone="no"?>
<!-- Created with Inkscape (http://www.inkscape.org/) -->

<svg
   xmlns:dc="http://purl.org/dc/elements/1.1/"
   xmlns:cc="http://creativecommons.org/ns#"
   xmlns:rdf="http://www.w3.org/1999/02/22-rdf-syntax-ns#"
   xmlns:svg="http://www.w3.org/2000/svg"
   xmlns="http://www.w3.org/2000/svg"
   xmlns:sodipodi="http://sodipodi.sourceforge.net/DTD/sodipodi-0.dtd"
   xmlns:inkscape="http://www.inkscape.org/namespaces/inkscape"
   width="210mm"
   height="297mm"
   viewBox="0 0 210 297"
   version="1.1"
   id="svg9993"
   inkscape:version="0.92.3 (2405546, 2018-03-11)"
   sodipodi:docname="rupee.svg">
  <defs
     id="defs9987" />
  <sodipodi:namedview
     id="base"
     pagecolor="#ffffff"
     bordercolor="#666666"
     borderopacity="1.0"
     inkscape:pageopacity="0.0"
     inkscape:pageshadow="2"
     inkscape:zoom="0.35"
     inkscape:cx="400"
     inkscape:cy="560"
     inkscape:document-units="mm"
     inkscape:current-layer="layer1"
     showgrid="false"
     inkscape:window-width="1366"
     inkscape:window-height="705"
     inkscape:window-x="-8"
     inkscape:window-y="-8"
     inkscape:window-maximized="1" />
  <metadata
     id="metadata9990">
    <rdf:RDF>
      <cc:Work
         rdf:about="">
        <dc:format>image/svg+xml</dc:format>
        <dc:type
           rdf:resource="http://purl.org/dc/dcmitype/StillImage" />
        <dc:title></dc:title>
      </cc:Work>
    </rdf:RDF>
  </metadata>
  <g
     inkscape:label="Layer 1"
     inkscape:groupmode="layer"
     id="layer1">
    <g
       id="g10008"
       transform="matrix(2.0546277,0,0,2.228932,-219.50027,-348.89807)">
      <g
         transform="matrix(1.6105176,0,0,1.6292379,-17.951919,-11.595883)"
         id="g9758">
        <path
           id="path9493-1-8"
           d="m 130.55014,126.81716 h -9.15919 c -0.41017,-1.67548 -1.05558,-3.25743 -1.91391,-4.69658 h 11.0731 c 2.23104,0 4.03962,-1.83984 4.03962,-4.10946 0,-2.26964 -1.80858,-4.10948 -4.03962,-4.10948 H 86.114272 c -2.231044,0 -4.039625,1.83984 -4.039625,4.10948 0,2.26962 1.808581,4.10946 4.039625,4.10946 h 19.043878 c 3.31476,0 6.1988,1.90592 7.65254,4.69658 H 86.114272 c -2.231044,0 -4.039625,1.83985 -4.039625,4.10949 0,2.2696 1.808581,4.10946 4.039625,4.10946 h 26.696418 c -1.45396,2.79043 -4.33778,4.69657 -7.65254,4.69657 H 86.114272 c -1.633838,0 -3.106769,1.00143 -3.732318,2.5366 -0.625103,1.53587 -0.279634,3.30329 0.875725,4.47864 l 31.739861,32.28868 c 0.78914,0.80231 1.82243,1.20348 2.85661,1.20348 1.03372,0 2.06745,-0.40117 2.85658,-1.20348 1.57783,-1.60511 1.57783,-4.20687 0,-5.81198 L 95.86708,147.95139 h 9.29107 c 7.83532,0 14.42758,-5.50707 16.23973,-12.91552 h 9.15226 c 2.23104,0 4.03962,-1.83984 4.03962,-4.10946 0,-2.2694 -1.80858,-4.10925 -4.03962,-4.10925 z"
           style="fill:#000000;stroke-width:0.22509243"
           inkscape:connector-curvature="0" />
        <path
           id="path9493-1"
           d="m 131.44337,125.19541 h -9.15919 c -0.41017,-1.67548 -1.05558,-3.25743 -1.91391,-4.69658 h 11.0731 c 2.23104,0 4.03962,-1.83984 4.03962,-4.10946 0,-2.26964 -1.80858,-4.10948 -4.03962,-4.10948 H 87.007501 c -2.231044,0 -4.039625,1.83984 -4.039625,4.10948 0,2.26962 1.808581,4.10946 4.039625,4.10946 h 19.043879 c 3.31476,0 6.1988,1.90592 7.65254,4.69658 H 87.007501 c -2.231044,0 -4.039625,1.83985 -4.039625,4.10949 0,2.2696 1.808581,4.10946 4.039625,4.10946 h 26.696419 c -1.45396,2.79042 -4.33778,4.69657 -7.65254,4.69657 H 87.007501 c -1.633838,0 -3.106769,1.00143 -3.732318,2.5366 -0.625103,1.53587 -0.279634,3.30329 0.875725,4.47864 l 31.739862,32.28868 c 0.78914,0.80231 1.82243,1.20348 2.8566,1.20348 1.03373,0 2.06746,-0.40117 2.85659,-1.20348 1.57783,-1.60511 1.57783,-4.20687 0,-5.812 L 96.760309,146.32964 h 9.291071 c 7.83532,0 14.42758,-5.50707 16.23973,-12.91552 h 9.15226 c 2.23104,0 4.03962,-1.83984 4.03962,-4.10946 0,-2.2694 -1.80858,-4.10925 -4.03962,-4.10925 z"
           style="fill:#ffd15d;stroke-width:0.22509243"
           inkscape:connector-curvature="0" />
      </g>
    </g>
  </g>
</svg>
